<svg xmlns="http://www.w3.org/2000/svg" width="24" height="24" fill="none"><rect width="24" height="24" fill="#FFF3E4" rx="12"/><path fill="#fff" d="M16.871 13.32a3.956 3.956 0 0 0 2.27-3.566c0-1.621-1.297-3.566-4.215-3.566a5.115 5.115 0 0 0-2.918 1.268A5.119 5.119 0 0 0 9.09 6.187c-2.918 0-4.215 1.946-4.215 3.567a3.955 3.955 0 0 0 2.27 3.566v3.89a.649.649 0 0 0 .648.65h8.43a.649.649 0 0 0 .648-.65v-3.89Z"/><path fill="#fff" d="M12.008 7.457a5.117 5.117 0 0 0-2.918-1.27c-2.918 0-4.215 1.946-4.215 3.567a3.955 3.955 0 0 0 2.27 3.566v3.89a.649.649 0 0 0 .648.65h4.215V7.456Z"/><path stroke="#121212" stroke-linecap="round" stroke-linejoin="round" stroke-width=".778" d="M14.926 14.617v1.945m-1.946-1.945v1.945m-1.945-1.945v1.945M9.09 14.617v1.945m7.781-3.242a3.956 3.956 0 0 0 2.27-3.566c0-1.621-1.297-3.566-4.215-3.566a5.115 5.115 0 0 0-2.918 1.268"/><path stroke="#121212" stroke-linecap="round" stroke-linejoin="round" stroke-width=".778" d="M7.145 13.32a3.955 3.955 0 0 1-2.27-3.566c0-1.621 1.297-3.566 4.215-3.566 2.328 0 4.215 2.917 6.16 3.242m-8.105 3.89h9.726v3.89a.649.649 0 0 1-.648.65h-8.43a.648.648 0 0 1-.648-.65v-3.89Z"/></svg>