<svg xmlns="http://www.w3.org/2000/svg" width="24" height="24" fill="none"><path fill="#fff" d="M18.225 13.66a5.063 5.063 0 0 0 2.905-4.565c0-2.075-1.66-4.565-5.395-4.565-1.386.13-2.694.7-3.735 1.624A6.552 6.552 0 0 0 8.265 4.53C4.53 4.53 2.87 7.02 2.87 9.095a5.063 5.063 0 0 0 2.905 4.565v4.98a.83.83 0 0 0 .83.83h10.79a.83.83 0 0 0 .83-.83v-4.98Z"/><path fill="#fff" d="M12 6.155A6.55 6.55 0 0 0 8.265 4.53C4.53 4.53 2.87 7.02 2.87 9.095a5.063 5.063 0 0 0 2.905 4.565v4.98a.83.83 0 0 0 .83.83H12V6.155Z"/><path stroke="#121212" stroke-linecap="round" stroke-linejoin="round" stroke-width=".996" d="M15.735 15.32v2.49m-2.49-2.49v2.49m-2.49-2.49v2.49m-2.49-2.49v2.49m9.96-4.15a5.063 5.063 0 0 0 2.905-4.565c0-2.075-1.66-4.565-5.395-4.565-1.386.13-2.694.7-3.735 1.624"/><path stroke="#121212" stroke-linecap="round" stroke-linejoin="round" stroke-width=".996" d="M5.775 13.66A5.062 5.062 0 0 1 2.87 9.095c0-2.075 1.66-4.565 5.395-4.565 2.98 0 5.395 3.735 7.885 4.15M5.775 13.66h12.45v4.98a.83.83 0 0 1-.83.83H6.605a.83.83 0 0 1-.83-.83v-4.98Z"/></svg>